<svg width="18" height="18" viewBox="0 0 18 18" fill="none" xmlns="http://www.w3.org/2000/svg">
<path fill-rule="evenodd" clip-rule="evenodd" d="M9.74792 2.30309C9.74914 2.28561 9.74976 2.26797 9.74976 2.25018C9.74976 1.83597 9.41397 1.50018 8.99976 1.50018C8.58554 1.50018 8.24976 1.83597 8.24976 2.25018C8.24976 2.26797 8.25038 2.28561 8.25159 2.30309C5.70648 2.66622 3.74976 4.85469 3.74976 7.50018V12.7502H2.99976C2.58554 12.7502 2.24976 13.086 2.24976 13.5002C2.24976 13.9144 2.58554 14.2502 2.99976 14.2502H6.74976C6.74976 15.4928 7.75712 16.5002 8.99976 16.5002C10.2424 16.5002 11.2498 15.4928 11.2498 14.2502H14.9998C15.414 14.2502 15.7498 13.9144 15.7498 13.5002C15.7498 13.086 15.414 12.7502 14.9998 12.7502H14.2498V7.50018C14.2498 4.85469 12.293 2.66622 9.74792 2.30309ZM12.7498 7.50018V12.7502H5.24976V7.50018C5.24976 5.42912 6.92869 3.75018 8.99976 3.75018C11.0708 3.75018 12.7498 5.42912 12.7498 7.50018ZM8.99976 15.0002C8.58554 15.0002 8.24976 14.6644 8.24976 14.2502H9.74976C9.74976 14.6644 9.41397 15.0002 8.99976 15.0002Z" fill="#FFFCF7"/>
</svg>
