<svg width="49" height="10" viewBox="0 0 49 10" fill="none" xmlns="http://www.w3.org/2000/svg">
<path d="M0 9.62443V0H7.05557C9.61135 0 11.1475 1.8162 11.1475 4.81937C11.1475 7.82253 9.61135 9.62443 7.05557 9.62443H0ZM6.7293 1.48728H1.56337V8.13715H6.7293C8.51019 8.13715 9.62494 6.86438 9.62494 4.81937C9.62494 2.77435 8.51019 1.48728 6.7293 1.48728Z" fill="#FEF5A2"/>
<path d="M12.6387 9.62443V0H23.2424V1.48728H14.2021V2.96026H23.1065V4.44755H14.2021V8.13715H23.2424V9.62443H12.6387Z" fill="#FEF5A2"/>
<path d="M24.7331 9.76744V0H33.855C35.1193 0 35.8806 0.829447 35.8806 2.21662C35.8806 3.6038 35.1193 4.44755 33.855 4.44755H26.2964V9.76744H24.7331ZM33.4472 1.48728H26.2964V2.96026H33.4472C34.0453 2.96026 34.358 2.73145 34.358 2.21662C34.358 1.70179 34.0317 1.48728 33.4472 1.48728Z" fill="#FEF5A2"/>
<path d="M37.0515 5.68469V4.60074H37.9134V2.44325H39.0529V4.60074H41.1137V5.68469H39.0529V7.55033C39.0529 8.05062 39.2609 8.37372 39.8752 8.37372H41.2128V9.45767H39.7662C38.389 9.45767 37.9134 8.71767 37.9134 7.59202V5.68469H37.0515Z" fill="#FEF5A2"/>
<path d="M44.4579 5.68469C43.8436 5.68469 43.4374 6.00779 43.4374 6.50807V9.45767H42.298V2.44325H43.4374V4.97595C43.6752 4.74665 44.0022 4.60074 44.3886 4.60074H46.9844C48.3616 4.60074 48.8372 5.34074 48.8372 6.46638V9.45767H47.6978V6.50807C47.6978 6.00779 47.4897 5.68469 46.8755 5.68469H44.4579Z" fill="#FEF5A2"/>
</svg>
