<svg width="74" height="16" viewBox="0 0 74 16" fill="none" xmlns="http://www.w3.org/2000/svg">
<path d="M1.16786 11.5266C1.51916 11.84 1.89895 12.0868 2.32622 12.3147C2.73449 12.5426 3.18074 12.761 3.63649 12.9129C4.10173 13.0838 4.58597 13.1977 5.08919 13.2832C5.57342 13.3781 6.07664 13.4161 6.57987 13.3971C7.34894 13.3971 7.99458 13.2452 8.48831 12.9508C8.97254 12.685 9.21941 12.2198 9.21941 11.6026C9.21941 10.9095 8.97254 10.3873 8.48831 10.017C7.98509 9.66566 7.27298 9.39981 6.32351 9.17193C5.35504 8.98204 4.51001 8.72568 3.76942 8.44084C3.01933 8.16549 2.40217 7.82368 1.89895 7.43439C1.39573 7.04511 1.00644 6.60835 0.75958 6.08614C0.493727 5.58292 0.370295 4.98475 0.370295 4.29163C0.370295 3.56053 0.522212 2.92439 0.835539 2.38318C1.14887 1.86097 1.54765 1.41472 2.08885 1.05392C2.61106 0.702612 3.20923 0.436759 3.90234 0.246864C4.57647 0.0949476 5.28858 0 6.06715 0C7.09258 0 8.08004 0.170906 9.00103 0.484233C9.93151 0.835539 10.8525 1.2723 11.783 1.85148L10.6436 4.14921C10.0265 3.70296 9.31435 3.34215 8.53579 3.02883C7.74772 2.73449 6.95016 2.58257 6.18109 2.54459C5.84877 2.54459 5.52595 2.56358 5.21262 2.60156C4.86131 2.65853 4.57647 2.75348 4.32011 2.86742C4.05426 3.00034 3.81689 3.18074 3.66498 3.38963C3.49407 3.6175 3.41811 3.89285 3.41811 4.19668C3.41811 4.49102 3.45609 4.73788 3.55104 4.92778C3.627 5.15565 3.7979 5.35504 4.03527 5.50696C4.26315 5.69685 4.57647 5.85826 4.96576 6.01018C5.35504 6.1621 5.83927 6.32351 6.45643 6.47542C7.51985 6.76027 8.43134 7.0546 9.18143 7.36793C9.91253 7.70025 10.5107 8.04206 10.9759 8.43134C11.4222 8.83962 11.745 9.27638 11.9634 9.7796C12.1533 10.2828 12.2767 10.881 12.2767 11.5361C12.2767 12.2672 12.1248 12.8844 11.8115 13.4256C11.4981 13.9668 11.0804 14.432 10.5582 14.8118C10.017 15.1821 9.39981 15.467 8.6877 15.6569C7.9566 15.8467 7.15905 15.9512 6.35199 15.9512C5.17464 15.9512 4.05426 15.7423 2.97186 15.353C1.87047 14.9447 0.883012 14.4415 0 13.8244L1.17735 11.5266H1.16786Z" fill="#FFFCF7"/>
<path d="M12.8467 15.5625L18.4486 0.37085H21.7907L27.3926 15.572H24.3638L22.6263 10.6822L17.0813 12.1918L15.885 15.572H12.8562L12.8467 15.5625ZM18.0118 9.61874L21.8762 8.57432L20.1197 3.66553L18.0118 9.60925V9.61874Z" fill="#FFFCF7"/>
<path d="M39.9639 6.62789V8.98259H31.9883V13.2267H40.5241V15.5625H28.9405V0.37085H40.3342V2.72555H31.9883V6.62789H39.9639Z" fill="#FFFCF7"/>
<path d="M42.5456 0.37085H50.6921C51.3472 0.37085 51.9454 0.465797 52.5246 0.646198C53.0848 0.836093 53.588 1.11144 54.0153 1.45325C54.4425 1.84254 54.7653 2.29829 55.0217 2.83949C55.2496 3.41867 55.373 4.0738 55.373 4.83339C55.373 5.91579 55.1451 6.76082 54.6989 7.35899C54.2336 7.97615 53.5975 8.44139 52.8094 8.74522L56.1896 15.5625H53.0373L50.0275 9.49531L45.6029 10.5397V15.5625H42.5551V0.37085H42.5456ZM52.3442 4.83339C52.3442 4.15926 52.1353 3.63705 51.746 3.26675C51.3187 2.91544 50.7965 2.72555 50.1604 2.72555H45.6029V7.99514L49.8281 7.12162C50.6351 6.9887 51.2618 6.71335 51.6985 6.33356C52.1258 5.96326 52.3347 5.46004 52.3347 4.82389L52.3442 4.83339Z" fill="#FFFCF7"/>
<path d="M64.147 13.0161C61.8207 12.4464 60.0927 10.3481 60.0927 7.85094C60.0927 5.35381 61.8207 3.25547 64.147 2.68579V0.169678C60.406 0.815321 57.5481 4.07202 57.5481 8.00285C57.5481 11.9337 60.3965 15.1904 64.147 15.836V13.0256V13.0161Z" fill="#D5EBDE"/>
<path d="M66.862 0.170113V2.7337C69.1028 3.36035 70.7454 5.41122 70.7454 7.85137C70.7454 10.2915 69.1028 12.3424 66.862 12.969V15.8175C70.603 15.1718 73.4609 11.9151 73.4609 7.9843C73.4609 4.05347 70.6125 0.796767 66.862 0.151123V0.170113Z" fill="#D5EBDE"/>
<path d="M64.147 0.0469971H57.5481V2.7625H64.147V0.0469971Z" fill="#D5EBDE"/>
<path d="M73.4609 13.2358H66.862V15.9988H73.4609V13.2358Z" fill="#D5EBDE"/>
</svg>
